<?xml version="1.0" encoding="UTF-8"?>
<svg xmlns="http://www.w3.org/2000/svg" viewBox="0 0 1920 1080">
  <defs>
    <style>
      .cls-1 {
        fill: #9bcee0;
      }

      .cls-2 {
        fill: #669eb2;
      }

      .cls-3 {
        fill: #f9f9f9;
      }

      .cls-4 {
        fill: #74adc1;
      }
    </style>
  </defs>
  <g id="_圖層_2" data-name="圖層 2">
    <rect class="cls-3" width="1920" height="1080"/>
  </g>
  <g id="_圖層_1" data-name="圖層 1">
    <g>
      <polygon class="cls-1" points="836 503 922 567 962 538 836 503"/>
      <polygon class="cls-2" points="836 503 922 567 917 607 836 503"/>
      <g>
        <polygon class="cls-4" points="836 503 913 575 917 607 836 503"/>
        <polygon class="cls-1" points="836 503 913 575 870 611 836 503"/>
      </g>
    </g>
    <path class="cls-1" d="m1088.85,1078.94l-1.82-.83c1.64-3.62,3.2-7.32,4.63-11.01l1.87.72c-1.44,3.72-3.02,7.46-4.67,11.11Zm8.71-22.47l-1.9-.62c1.22-3.77,2.35-7.63,3.35-11.46l1.94.51c-1.01,3.87-2.15,7.77-3.38,11.57Zm6.09-23.33l-1.96-.39c.77-3.89,1.44-7.86,1.98-11.77l1.98.27c-.54,3.96-1.22,7.96-2,11.89Zm3.28-23.88l-1.99-.15c.3-3.95.48-7.97.54-11.92l2,.03c-.06,4-.25,8.05-.55,12.05Zm-1.46-24.05c-.06-4.5-.19-8.3-.42-11.94l2-.13c.24,3.68.37,7.51.43,12.04l-2,.03Zm-1.63-23.8c-.58-4.01-1.33-7.94-2.25-11.68l1.94-.48c.93,3.8,1.7,7.8,2.29,11.88l-1.98.28Zm-5.7-23.05c-1.35-3.7-2.93-7.37-4.7-10.91l1.79-.89c1.8,3.6,3.41,7.34,4.79,11.12l-1.88.69Zm-10.58-21.24c-2.18-3.4-4.54-6.62-7-9.58l1.54-1.28c2.51,3.02,4.91,6.31,7.14,9.78l-1.68,1.08Zm-15.17-18.16c-2.89-2.64-5.91-5.06-9.26-7.4l1.14-1.64c3.42,2.39,6.52,4.86,9.47,7.57l-1.35,1.47Zm-19.37-13.65c-3.07-1.69-6.45-3.41-10.64-5.41l.86-1.8c4.23,2.02,7.64,3.75,10.74,5.47l-.97,1.75Zm-21.5-10.46l-2.93-1.34c-2.85-1.3-5.49-2.51-7.97-3.67l.85-1.81c2.47,1.16,5.11,2.37,7.95,3.66l2.93,1.34-.83,1.82Zm-21.68-10.42c-3.98-2.21-7.2-4.34-10.13-6.69l1.25-1.56c2.84,2.28,5.96,4.35,9.84,6.5l-.97,1.75Zm-18.74-15.29c-2.17-2.65-4.28-5.63-6.46-9.11l-.5-.81,1.7-1.05.49.8c2.13,3.41,4.19,6.32,6.31,8.9l-1.55,1.27Zm-12.58-20.67c-1.65-3.93-2.79-7.75-3.49-11.68l1.97-.35c.67,3.78,1.77,7.46,3.36,11.26l-1.84.78Zm19.23-18.46c-4.04-.39-8.06-1.21-11.94-2.42l.6-1.91c3.75,1.18,7.63,1.96,11.53,2.34l-.19,1.99Zm12.18-.05l-.2-1.99c2.8-.29,5.68-.77,8.54-1.44.18-.05,1.11-.44,2.67-1.27l.94,1.76c-1.1.59-2.58,1.32-3.16,1.45-2.94.69-5.9,1.19-8.79,1.49Zm-33.62-5.25l-2-.1c.03-.63.07-1.26.12-1.9-3.38-1.85-6.72-4.07-9.95-6.6l1.23-1.57c2.9,2.28,5.9,4.29,8.93,6.01.29-2.56.73-5.19,1.34-7.96l1.95.43c-.92,4.15-1.45,7.98-1.63,11.7Zm55.7-4.5l-1.28-1.54c3.36-2.8,5.99-5.7,7.81-8.63l1.7,1.05c-1.93,3.11-4.7,6.18-8.23,9.12Zm-76.46-12.36c-1.83-2.04-4.6-5.38-7.37-9.67l1.68-1.09c2.7,4.18,5.39,7.43,7.18,9.42l-1.49,1.33Zm25.7-6.18l-1.84-.78c1.49-3.49,3.85-7.02,6.84-10.21l1.46,1.37c-2.83,3.02-5.06,6.35-6.46,9.62Zm60.31-2.47c-.06-4.09-1.06-7.77-2.98-10.93l1.71-1.04c2.1,3.47,3.2,7.48,3.27,11.94l-2,.03Zm-99.13-11.74c-1.65-3.82-2.9-7.72-3.73-11.59l1.96-.42c.8,3.74,2.02,7.52,3.62,11.22l-1.84.79Zm54.36-2.8l-1.05-1.7c3.54-2.19,7.3-3.87,11.16-5.02l.57,1.92c-3.69,1.09-7.28,2.71-10.68,4.8Zm33.41-3.92c-2.37-1.15-5-1.91-7.82-2.25-1.11-.13-2.25-.21-3.38-.24l.04-2c1.2.02,2.4.11,3.58.25,3.04.37,5.89,1.19,8.46,2.44l-.88,1.8Zm-90.76-16.99h-2v-.1c0-4.12.38-8.05,1.17-12.01l1.96.39c-.76,3.83-1.14,7.63-1.14,11.62v.1Zm4.48-23.05l-1.87-.72c1.3-3.4,2.92-7,4.95-11.03l1.79.9c-2,3.97-3.59,7.51-4.87,10.85Zm10.53-21.37l-1.74-.99c.62-1.1,1.26-2.21,1.92-3.36l4.07-7.04,1.73,1-4.07,7.04c-.66,1.14-1.29,2.25-1.91,3.34Zm11.94-20.81l-1.75-.97c2.56-4.64,4.12-7.82,5.19-10.63l1.87.71c-1.11,2.9-2.7,6.16-5.31,10.88Zm8.08-22.74l-1.98-.26.02-.16c.12-.97.19-2.03.19-3.15,0-2.57-.33-5.35-.97-8.27l1.95-.43c.67,3.05,1.01,5.98,1.01,8.7,0,1.21-.07,2.35-.2,3.41l-.02.16Zm-6.58-22.94c-1.64-3.48-3.68-6.89-6.05-10.12l1.61-1.18c2.45,3.33,4.55,6.85,6.24,10.45l-1.81.85Zm-13.84-19c-2.77-2.67-5.84-5.2-9.13-7.53l1.16-1.63c3.37,2.39,6.52,4.99,9.36,7.73l-1.39,1.44Z"/>
  </g>
</svg>