<?xml version="1.0" encoding="utf-8"?>
<!-- Generator: Adobe Illustrator 27.3.1, SVG Export Plug-In . SVG Version: 6.00 Build 0)  -->
<svg version="1.1" id="_圖層_1" xmlns="http://www.w3.org/2000/svg" xmlns:xlink="http://www.w3.org/1999/xlink" x="0px" y="0px"
	 viewBox="0 0 446.1 640" style="enable-background:new 0 0 446.1 640;" xml:space="preserve">
<style type="text/css">
	.st0{fill:#FFFFFF;}
</style>
<g>
	<g>
		<path class="st0" d="M255.5,426.9l0.4-3.4c0-0.3,3.9-32.9,3.9-61.4c0-24.8,6.5-42.9,20.4-56.8c10-10,19.5-19.5,29.7-28.9
			c2.8-3,6.7-4.7,10.9-4.7c3.6,0,7.1,1.3,9.7,3.5c5.1,4.3,7.8,13.4-1.2,24.8L313,322.5c-0.9,1.3-0.7,2.1-0.3,2.4
			c0.1,0.1,0.2,0.2,0.5,0.2c0.4,0,0.9-0.3,1.3-0.8l0.2-0.2c18.4-18.4,30.2-38,32.7-42.3c-0.3-4.1-1.5-22-1.5-39.1
			c0-7.4,7-27,15.7-28c0.3,0,0.5,0,0.8,0c4.5,0,7.8,4.5,9.8,13.3c8.8,38,10.6,62.4,5.2,72.4l-0.1,0.1c-5.9,9.6-38.4,69.5-40.9,74.2
			l1.6,52.3H255.5z M331.6,420.8l-1.5-47.7l0.4-0.7c0.3-0.6,35-64.6,41.5-75.1c3.2-6,4.8-22.7-5.8-68.1c-1.6-7.1-3.5-8.6-4-8.6
			c-3.5,0.4-10.3,15-10.3,22c0,18.3,1.4,37.5,1.6,39.6l0.1,0.9l-0.4,0.8c-0.1,0.2-12.8,23.1-34,44.4c-1.6,1.8-3.7,2.9-5.9,2.9
			c-1.5,0-3-0.5-4.2-1.4c-2.8-2.1-3.9-6.5-0.9-10.8l16.5-22.7c6.3-8,5.2-13.8,2-16.5c-1.5-1.3-3.6-2-5.7-2c-2.5,0-4.8,1-6.5,2.9
			l-0.1,0.1c-10.1,9.3-19.6,18.8-29.6,28.8l-0.1,0.1c-8,8-18.6,22.2-18.6,52.5c0,23.4-2.6,49.8-3.5,58.7H331.6z M157.4,426.9
			l1.6-52.3c-2.5-4.7-35-64.6-40.9-74.1l-0.1-0.1c-5.1-9.5-3.6-30.5,5.2-72.4c2-8.9,5.3-13.4,9.8-13.4c0.3,0,0.5,0,0.8,0
			c8.8,1,15.7,20.6,15.7,28c0,17.1-0.6,35.1-0.8,39.1c2.3,4.3,13.5,23.9,31.9,42.3c0.9,0.9,1.6,1,1.8,1c0.2,0,0.3,0,0.4-0.1
			c0.2-0.2,0.4-1.1-0.6-2.5l-16.4-22.6c-8.5-11.3-6-20.2-0.8-24.7c2.6-2.2,6.2-3.5,9.8-3.5c4.2,0,8.2,1.7,11.2,4.8l28.9,28.9
			c13.9,13.9,20.4,32,20.4,56.8c0,28.5,4.6,61,4.7,61.3l0.5,3.5H157.4z M233.6,420.8c-1.1-8.9-4.3-35.3-4.3-58.7
			c0-30.4-10.6-44.5-18.6-52.5l-28.9-28.9c-1.9-1.9-4.4-3-7-3c-2.2,0-4.3,0.8-5.8,2.1c-3.1,2.7-4.3,8.5,1.7,16.5l16.4,22.7
			c3.2,4.4,2,8.6-0.4,10.7c-1.2,1-2.7,1.5-4.3,1.5c-1.5,0-3.8-0.5-6.1-2.8c-21.1-21.1-33.2-44.3-33.4-44.5l-0.4-0.7l0-0.8
			c0-0.2,0.8-20.6,0.8-39.7c0-7-6.8-21.6-10.3-22l0,0c-0.4,0-2.3,1.5-4,8.6c-5.9,28-11.1,58.1-5.8,68.1c6.1,10,37.8,68.4,41.4,75
			l0.4,0.7l-1.5,47.7H233.6z M246.8,313.3c-19.7-8.8-35.1-19.8-45.5-32.7c-9.1-11.2-14-23.2-14.1-34.8c-0.2-13.5,6-24.6,16.7-29.7
			c4.1-2,8.5-3,13.3-3c9.8,0,20.5,4.2,30.9,12.3c10.3-8,20.8-12.2,30.6-12.2c4.6,0,9,1,12.9,2.9c10.7,5.1,17,16.2,16.8,29.7
			c-0.1,11.6-4.9,23.7-13.9,34.9c-10.3,12.9-25.5,23.9-45.1,32.8l-1.2,0.6L246.8,313.3z M217.1,219.2c-3.8,0-7.4,0.8-10.6,2.4
			c-8.5,4.1-13.4,13.1-13.2,24.1c0.1,8.6,4.5,38.5,54.8,61.5c49.9-23,54.1-52.9,54.2-61.6c0.1-11.1-4.9-20.1-13.4-24.2
			c-3.1-1.5-6.6-2.3-10.3-2.3c-8.9,0-18.8,4.3-28.6,12.4l-1.9,1.6l-1.9-1.6C236.2,223.5,226.2,219.2,217.1,219.2z"/>
		<path class="st0" d="M337,426h-80.5l0.3-2.5c0-0.3,3.9-33,3.9-61.5c0-24.6,6.4-42.5,20.2-56.2c10-10,19.5-19.5,29.7-28.9
			c5.7-6.1,14.5-5.4,19.4-1.2c4.8,4.1,7.3,12.7-1.3,23.6L312.3,322c-1.3,1.8-0.9,3-0.2,3.6c0.6,0.5,1.8,0.6,3-0.8l0.1-0.1
			c18.8-18.8,30.8-39.1,32.9-42.7c-0.3-3.7-1.5-21.9-1.5-39.3c0-7,6.8-26.3,15-27.2c4.4-0.5,7.7,3.8,9.7,12.6
			c8.8,37.8,10.6,62,5.3,71.8l-0.1,0.1c-5.9,9.5-37.7,68.2-41.1,74.4L337,426z M261.4,421.6h71.1l-1.5-48.3l0.3-0.5
			c1.4-2.6,35.1-64.8,41.4-75.1c3.3-6.2,4.9-23.1-5.7-68.7c-1.6-7.1-3.7-9.4-4.9-9.2c-4.2,0.5-11.1,15.8-11.1,22.8
			c0,19.2,1.5,39.5,1.6,39.7l0.1,0.7l-0.3,0.6c-0.1,0.2-12.9,23.1-33.9,44.2c-2.8,3.3-6.6,3.2-8.9,1.4c-2.4-1.9-3.5-5.8-0.7-9.6
			l16.5-22.7c6.7-8.5,5.4-14.6,1.9-17.6c-3.4-2.9-9.5-3.3-13.4,0.9l-0.1,0.1c-10.1,9.4-19.6,18.8-29.6,28.8
			c-8.1,8.1-18.9,22.4-18.9,53.1C265.1,386.3,262.3,413.4,261.4,421.6z M237.1,426h-78.8l1.6-51.7c-3.4-6.2-35.2-64.9-41.1-74.4
			l-0.1-0.1c-5-9.3-3.5-30.1,5.3-71.8c2-8.9,5.3-13.2,9.7-12.7c8.2,0.9,15,20.2,15,27.2c0,17.5-0.6,35.8-0.8,39.3
			c1.9,3.4,13.3,23.8,32.2,42.7c1.4,1.4,2.7,1.5,3.3,1c0.6-0.5,0.8-1.9-0.4-3.6l-16.4-22.6c-8.2-10.9-5.8-19.3-0.9-23.6
			c4.9-4.3,13.7-5,19.9,1.2l28.9,28.9c13.8,13.8,20.2,31.6,20.2,56.2c0,28.4,4.6,61.1,4.7,61.4l0.4,2.5H237.1z M162.8,421.6h71.8
			c-1.1-8.3-4.4-35.4-4.4-59.5c0-30.7-10.8-45-18.9-53.1l-28.9-28.9c-4.4-4.4-10.5-3.9-13.9-1c-3.4,3-4.8,9.1,1.6,17.6l16.4,22.7
			c2.8,4,1.8,7.7-0.3,9.5c-2.1,1.8-5.9,2.2-9.3-1.2c-21.1-21.1-33.1-44.1-33.2-44.3l-0.3-0.5l0-0.6c0-0.2,0.8-20.5,0.8-39.8
			c0-7-6.8-22.3-11.1-22.8c-1.2-0.1-3.3,2.2-4.9,9.2c-5.9,28.2-11.2,58.4-5.7,68.7c6.3,10.3,40,72.4,41.4,75.1l0.3,0.5L162.8,421.6z
			 M248,312.9l-0.9-0.4c-19.6-8.8-34.8-19.7-45.2-32.5c-9-11-13.8-22.9-13.9-34.3c-0.2-13.1,5.9-23.9,16.2-28.9
			c12.4-6,28.3-2.5,43.8,9.6c15.2-12,30.8-15.6,43.1-9.7c10.4,4.9,16.5,15.8,16.3,28.9c-0.1,11.4-4.9,23.3-13.7,34.3
			c-10.3,12.8-25.3,23.7-44.8,32.5L248,312.9z M217.1,218.4c-3.9,0-7.6,0.8-11,2.4c-8.8,4.2-13.9,13.5-13.7,24.9
			c0.1,8.8,4.5,39.2,55.6,62.4c50.7-23.2,55-53.7,55.1-62.5c0.1-11.4-5.1-20.7-13.8-24.9c-11.1-5.3-25.6-1.5-39.8,10.3l-1.4,1.2
			l-1.4-1.1C236.5,222.7,226.2,218.4,217.1,218.4z"/>
	</g>
</g>
</svg>
