<?xml version="1.0" encoding="utf-8"?>
<!-- Generator: Adobe Illustrator 27.3.1, SVG Export Plug-In . SVG Version: 6.00 Build 0)  -->
<svg version="1.1" id="_圖層_1" xmlns="http://www.w3.org/2000/svg" xmlns:xlink="http://www.w3.org/1999/xlink" x="0px" y="0px"
	 viewBox="0 0 446.1 640" style="enable-background:new 0 0 446.1 640;" xml:space="preserve">
<style type="text/css">
	.st0{fill:#FFFFFF;}
</style>
<g>
	<g>
		<path class="st0" d="M265.8,434.8l0.4-3.7c0-0.3,4.2-35.3,4.2-65.9c0-26.6,7-46.1,21.9-61c10.7-10.7,20.9-20.9,31.9-31
			c3-3.2,7.2-5,11.7-5c3.9,0,7.6,1.4,10.4,3.8c5.5,4.6,8.4,14.4-1.3,26.6l-17.5,24.2c-1,1.4-0.8,2.3-0.3,2.6
			c0.1,0.1,0.2,0.2,0.5,0.2c0.4,0,1-0.3,1.4-0.9l0.2-0.2c19.8-19.8,32.4-40.8,35.1-45.4c-0.3-4.4-1.6-23.6-1.6-42
			c0-7.9,7.5-29,16.9-30.1c0.3,0,0.5,0,0.9,0c4.8,0,8.4,4.8,10.5,14.3c9.4,40.8,11.4,67,5.6,77.7l-0.1,0.1
			c-6.3,10.3-41.2,74.6-43.9,79.7l1.7,56.2h-88.6V434.8z M347.6,428.2l-1.6-51.2l0.4-0.8c0.3-0.6,37.6-69.4,44.6-80.6
			c3.4-6.4,5.2-24.4-6.2-73.1c-1.7-7.6-3.8-9.2-4.3-9.2c-3.8,0.4-11.1,16.1-11.1,23.6c0,19.6,1.5,40.3,1.7,42.5l0.1,1l-0.4,0.9
			c-0.1,0.2-13.7,24.8-36.5,47.7c-1.7,1.9-4,3.1-6.3,3.1c-1.6,0-3.2-0.5-4.5-1.5c-3-2.3-4.2-7-1-11.6l17.7-24.4
			c6.8-8.6,5.6-14.8,2.1-17.7c-1.6-1.4-3.9-2.1-6.1-2.1c-2.7,0-5.2,1.1-7,3.1l-0.1,0.1c-10.8,10-21,20.2-31.8,30.9l-0.1,0.1
			c-8.6,8.6-20,23.8-20,56.4c0,25.1-2.8,53.5-3.8,63h74.1V428.2z M160.5,434.8l1.7-56.2c-2.7-5-37.6-69.4-43.9-79.6l-0.1-0.1
			c-5.5-10.2-3.9-32.7,5.6-77.7c2.1-9.6,5.7-14.4,10.5-14.4c0.3,0,0.5,0,0.9,0c9.4,1.1,16.9,22.1,16.9,30.1c0,18.4-0.6,37.7-0.9,42
			c2.5,4.6,14.5,25.7,34.3,45.4c1,1,1.7,1.1,1.9,1.1s0.3,0,0.4-0.1c0.2-0.2,0.4-1.2-0.6-2.7l-17.6-24.3c-9.1-12.1-6.4-21.7-0.9-26.5
			c2.8-2.4,6.7-3.8,10.5-3.8c4.5,0,8.8,1.8,12,5.2l31,31c14.9,14.9,21.9,34.4,21.9,61c0,30.6,4.9,65.5,5,65.8l0.5,3.8L160.5,434.8
			L160.5,434.8z M242.3,428.2c-1.2-9.6-4.6-37.9-4.6-63c0-32.6-11.4-47.8-20-56.4l-31-31c-2-2-4.7-3.2-7.5-3.2
			c-2.4,0-4.6,0.9-6.2,2.3c-3.3,2.9-4.6,9.1,1.8,17.7l17.6,24.4c3.4,4.7,2.1,9.2-0.4,11.5c-1.3,1.1-2.9,1.6-4.6,1.6
			c-1.6,0-4.1-0.5-6.5-3c-22.7-22.7-35.6-47.6-35.9-47.8l-0.4-0.8v-0.9c0-0.2,0.9-22.1,0.9-42.6c0-7.5-7.3-23.2-11.1-23.6l0,0
			c-0.4,0-2.5,1.6-4.3,9.2c-6.3,30.1-11.9,62.4-6.2,73.1c6.5,10.7,40.6,73.4,44.5,80.5l0.4,0.8l-1.6,51.2L242.3,428.2L242.3,428.2z
			 M256.5,312.8c-21.2-9.4-37.7-21.3-48.9-35.1c-9.8-12-15-24.9-15.1-37.4c-0.2-14.5,6.4-26.4,17.9-31.9c4.4-2.1,9.1-3.2,14.3-3.2
			c10.5,0,22,4.5,33.2,13.2c11.1-8.6,22.3-13.1,32.9-13.1c4.9,0,9.7,1.1,13.9,3.1c11.5,5.5,18.3,17.4,18,31.9
			c-0.1,12.5-5.3,25.4-14.9,37.5c-11.1,13.9-27.4,25.7-48.4,35.2l-1.3,0.6L256.5,312.8z M224.6,211.8c-4.1,0-7.9,0.9-11.4,2.6
			c-9.1,4.4-14.4,14.1-14.2,25.9c0.1,9.2,4.8,41.3,58.8,66c53.6-24.7,58.1-56.8,58.2-66.1c0.1-11.9-5.3-21.6-14.4-26
			c-3.3-1.6-7.1-2.5-11.1-2.5c-9.6,0-20.2,4.6-30.7,13.3l-2,1.7l-2-1.7C245.1,216.4,234.4,211.8,224.6,211.8z"/>
		<path class="st0" d="M353.4,433.8h-86.4l0.3-2.7c0-0.3,4.2-35.4,4.2-66c0-26.4,6.9-45.6,21.7-60.3c10.7-10.7,20.9-20.9,31.9-31
			c6.1-6.5,15.6-5.8,20.8-1.3c5.2,4.4,7.8,13.6-1.4,25.3l-17.6,24.4c-1.4,1.9-1,3.2-0.2,3.9c0.6,0.5,1.9,0.6,3.2-0.9l0.1-0.1
			c20.2-20.2,33.1-42,35.3-45.8c-0.3-4-1.6-23.5-1.6-42.2c0-7.5,7.3-28.2,16.1-29.2c4.7-0.5,8.3,4.1,10.4,13.5
			c9.4,40.6,11.4,66.6,5.7,77.1l-0.1,0.1c-6.3,10.2-40.5,73.2-44.1,79.9L353.4,433.8z M272.2,429.1h76.3l-1.6-51.9l0.3-0.5
			c1.5-2.8,37.7-69.6,44.5-80.6c3.5-6.7,5.3-24.8-6.1-73.8c-1.7-7.6-4-10.1-5.3-9.9c-4.5,0.5-11.9,17-11.9,24.5
			c0,20.6,1.6,42.4,1.7,42.6l0.1,0.8l-0.3,0.6c-0.1,0.2-13.9,24.8-36.4,47.5c-3,3.5-7.1,3.4-9.6,1.5c-2.6-2-3.8-6.2-0.8-10.3
			l17.7-24.4c7.2-9.1,5.8-15.7,2-18.9c-3.7-3.1-10.2-3.5-14.4,1l-0.1,0.1c-10.8,10.1-21,20.2-31.8,30.9c-8.7,8.7-20.3,24.1-20.3,57
			C276.2,391.2,273.1,420.3,272.2,429.1z M246.1,433.8h-84.6l1.7-55.5c-3.7-6.7-37.8-69.7-44.1-79.9l-0.1-0.1
			c-5.4-10-3.8-32.3,5.7-77.1c2.1-9.6,5.7-14.2,10.4-13.6c8.8,1,16.1,21.7,16.1,29.2c0,18.8-0.6,38.4-0.9,42.2
			c2,3.7,14.3,25.6,34.6,45.8c1.5,1.5,2.9,1.6,3.5,1.1s0.9-2-0.4-3.9l-17.6-24.3c-8.8-11.7-6.2-20.7-1-25.3
			c5.3-4.6,14.7-5.4,21.4,1.3l31,31c14.8,14.8,21.7,33.9,21.7,60.3c0,30.5,4.9,65.6,5,65.9l0.4,2.7h-2.9V433.8z M166.3,429.1h77.1
			c-1.2-8.9-4.7-38-4.7-63.9c0-33-11.6-48.3-20.3-57l-31-31c-4.7-4.7-11.3-4.2-14.9-1.1c-3.7,3.2-5.2,9.8,1.7,18.9l17.6,24.4
			c3,4.3,1.9,8.3-0.3,10.2s-6.3,2.4-10-1.3c-22.7-22.7-35.5-47.3-35.6-47.6l-0.3-0.5v-0.6c0-0.2,0.9-22,0.9-42.7
			c0-7.5-7.3-23.9-11.9-24.5c-1.3-0.1-3.5,2.4-5.3,9.9c-6.3,30.3-12,62.7-6.1,73.8c6.8,11.1,42.9,77.7,44.5,80.6l0.3,0.5
			L166.3,429.1z M257.8,312.4l-1-0.4c-21-9.4-37.4-21.2-48.5-34.9c-9.7-11.8-14.8-24.6-14.9-36.8c-0.2-14.1,6.3-25.7,17.4-31
			c13.3-6.4,30.4-2.7,47,10.3c16.3-12.9,33.1-16.7,46.3-10.4c11.2,5.3,17.7,17,17.5,31c-0.1,12.2-5.3,25-14.7,36.8
			c-11.1,13.7-27.2,25.4-48.1,34.9L257.8,312.4z M224.6,210.9c-4.2,0-8.2,0.9-11.8,2.6c-9.4,4.5-14.9,14.5-14.7,26.7
			c0.1,9.4,4.8,42.1,59.7,67c54.4-24.9,59.1-57.7,59.2-67.1c0.1-12.2-5.5-22.2-14.8-26.7c-11.9-5.7-27.5-1.6-42.7,11.1l-1.5,1.3
			l-1.5-1.2C245.4,215.5,234.4,210.9,224.6,210.9z"/>
	</g>
</g>
</svg>
