<?xml version="1.0" encoding="utf-8"?>
<!-- Generator: Adobe Illustrator 27.3.1, SVG Export Plug-In . SVG Version: 6.00 Build 0)  -->
<svg version="1.1" id="_圖層_1" xmlns="http://www.w3.org/2000/svg" xmlns:xlink="http://www.w3.org/1999/xlink" x="0px" y="0px"
	 viewBox="0 0 446.1 640" style="enable-background:new 0 0 446.1 640;" xml:space="preserve">
<style type="text/css">
	.st0{fill:#FFFFFF;}
</style>
<path class="st0" d="M372.1,420.1L304,352c-7-7-17.5-8.3-25.8-3.9l-18.3-18.3c11.9-14.1,19.1-32.3,19.1-52.2
	c0-44.8-36.4-81.2-81.2-81.2c-44.8,0-81.2,36.4-81.2,81.2s36.4,81.2,81.2,81.2c19.9,0,38.1-7.2,52.2-19.1l18.3,18.3
	c-1.7,3.1-2.5,6.6-2.5,10.3c0,5.9,2.3,11.4,6.4,15.6l68.2,68.2c4.1,4.1,9.7,6.4,15.6,6.4s11.4-2.3,15.6-6.4l0.7-0.7l0,0
	C380.7,442.7,380.7,428.7,372.1,420.1z M124.5,277.5c0-40.4,32.8-73.2,73.2-73.2c40.4,0,73.2,32.8,73.2,73.2s-32.8,73.2-73.2,73.2
	C157.3,350.7,124.5,317.9,124.5,277.5z M277.8,378.1c-2.6-2.6-4.1-6.1-4.1-9.9c0-3.8,1.4-7.3,4.1-9.9l0.7-0.7
	c2.6-2.6,6.1-4.1,9.9-4.1c3.8,0,7.3,1.4,9.9,4.1l65.7,65.7l-20.5,20.5L277.8,378.1z M366.5,445.6l-0.7,0.7c-2.6,2.6-6.1,4.1-9.9,4.1
	c-2.5,0-5-0.7-7.1-1.9l19.9-19.9C371.8,434,371.1,441,366.5,445.6z"/>
<path class="st0" d="M140.9,289.5c-0.8-3.9-1.2-8-1.2-12c0-17.8,8-34.4,22-45.4l3.7,4.7c-12.5,9.9-19.7,24.8-19.7,40.7
	c0,3.6,0.4,7.3,1.1,10.8L140.9,289.5z"/>
<path class="st0" d="M147.6,306.8c-1.8-3.1-3.4-6.5-4.6-9.9l5.7-2c1.1,3.1,2.5,6,4.1,8.9L147.6,306.8z"/>
</svg>
