<?xml version="1.0" encoding="UTF-8"?>
<svg xmlns="http://www.w3.org/2000/svg" viewBox="0 0 1920 1080">
  <defs>
    <style>
      .cls-1 {
        fill: #6fb3b8;
      }

      .cls-1, .cls-2 {
        opacity: .57;
      }

      .cls-3 {
        fill: #d3eba3;
      }

      .cls-4, .cls-5 {
        stroke: #c2edce;
      }

      .cls-4, .cls-5, .cls-6 {
        fill: none;
        stroke-miterlimit: 10;
      }

      .cls-2, .cls-7 {
        fill: #c2edce;
      }

      .cls-8 {
        fill: #de905c;
      }

      .cls-9 {
        opacity: .47;
      }

      .cls-5 {
        stroke-width: 7px;
      }

      .cls-10 {
        fill: #f6f6f2;
      }

      .cls-6 {
        stroke: #de905c;
        stroke-width: 4px;
      }
    </style>
  </defs>
  <g id="_圖層_1" data-name="圖層 1">
    <rect class="cls-10" width="1920" height="1080"/>
  </g>
  <g id="_圖層_3" data-name="圖層 3">
    <circle class="cls-4" cx="1160.5" cy="612.5" r="17"/>
    <circle class="cls-4" cx="1144.5" cy="165.5" r="16"/>
    <circle class="cls-4" cx="753.5" cy="223.5" r="31"/>
    <circle class="cls-4" cx="1175.5" cy="148.5" r="31"/>
    <circle class="cls-7" cx="767.81" cy="794.69" r="14.31"/>
    <circle class="cls-7" cx="771" cy="188" r="13"/>
    <circle class="cls-7" cx="807.94" cy="744.48" r="10.48"/>
    <circle class="cls-1" cx="1169.5" cy="925.5" r="6.5"/>
    <circle class="cls-3" cx="1042.5" cy="149.5" r="6.5"/>
    <circle class="cls-3" cx="960.5" cy="997.5" r="6.5"/>
    <circle class="cls-2" cx="1128.5" cy="55.5" r="9.5"/>
    <g class="cls-9">
      <circle class="cls-6" cx="1091.38" cy="751.38" r="32.5"/>
      <circle class="cls-8" cx="1091.38" cy="751.38" r="6"/>
    </g>
    <polygon class="cls-4" points="887.79 39.5 844.5 64.5 887.79 89.5 887.79 39.5"/>
    <polygon class="cls-4" points="1145.55 968.88 1085.26 990.8 1134.4 1032.06 1145.55 968.88"/>
    <rect class="cls-4" x="751.53" y="587.67" width="50.34" height="50.34" transform="translate(-212.6 601.2) rotate(-37.6)"/>
    <line class="cls-5" x1="762.5" y1="1079.5" x2="1019.5" y2="745.5"/>
  </g>
</svg>