<?xml version="1.0" encoding="utf-8"?>
<!-- Generator: Adobe Illustrator 27.3.1, SVG Export Plug-In . SVG Version: 6.00 Build 0)  -->
<svg version="1.1" id="_圖層_1" xmlns="http://www.w3.org/2000/svg" xmlns:xlink="http://www.w3.org/1999/xlink" x="0px" y="0px"
	 viewBox="0 0 1125.6 318.6" style="enable-background:new 0 0 1125.6 318.6;" xml:space="preserve">
<g>
	<path d="M424.6,174.8c0,2.9-0.7,5.9-2.2,9.2c-1.4,3.2-3.6,6.5-6.6,9.7s-6.8,5.7-11.3,7.7c-4.7,2-10.1,2.9-16.2,2.9
		c-4.7,0-9-0.4-12.7-1.3s-7.4-2.3-10.4-4.1c-3.1-1.8-5.9-4.3-8.6-7.4c-2.3-2.7-4.3-5.9-5.9-9.3c-1.6-3.4-2.9-7.2-3.8-11
		s-1.1-8.3-1.1-12.6c0-7.2,1.1-13.5,3.1-19c2-5.6,5-10.4,9-14.4c3.8-3.9,8.4-7,13.6-9.2s10.8-3.2,16.5-3.2c7.2,0,13.5,1.4,19,4.3
		c5.6,2.9,9.9,6.5,12.9,10.6s4.5,8.1,4.5,11.8c0,2-0.7,3.8-2.2,5.4c-1.4,1.6-3.2,2.3-5.2,2.3c-2.3,0-3.9-0.5-5.2-1.6
		c-1.1-1.1-2.3-2.9-3.8-5.6c-2.3-4.3-5-7.7-8.3-9.9c-3.2-2.2-7-3.2-11.7-3.2c-7.4,0-13.3,2.9-17.6,8.4c-4.3,5.6-6.6,13.5-6.6,23.9
		c0,6.8,0.9,12.6,2.9,17.2c2,4.7,4.7,7.9,8.3,10.2c3.6,2.3,7.7,3.4,12.4,3.4c5.2,0,9.5-1.3,13.1-3.8c3.6-2.5,6.3-6.3,8.1-11.3
		c0.7-2.3,1.8-4.3,2.9-5.7s2.9-2.2,5.4-2.2c2.2,0,3.9,0.7,5.6,2.2C423.9,170.6,424.6,172.4,424.6,174.8L424.6,174.8z"/>
	<path d="M479.8,112.8c9.2,0,17.1,1.8,23.7,5.6c6.6,3.8,11.5,9,14.9,15.8c3.4,6.8,5,14.9,5,24.2c0,6.8-0.9,13.1-2.9,18.7
		c-1.8,5.6-4.7,10.4-8.3,14.5c-3.8,4.1-8.3,7.2-13.6,9.3s-11.5,3.2-18.5,3.2c-7,0-13.1-1.1-18.5-3.4c-5.4-2.2-10.1-5.4-13.6-9.5
		c-3.6-4.1-6.5-9-8.3-14.7c-1.8-5.7-2.9-11.8-2.9-18.5s0.9-13.1,2.9-18.7s4.8-10.6,8.4-14.5c3.6-3.9,8.3-7,13.5-9.2
		S472.9,112.7,479.8,112.8L479.8,112.8z M505.3,158.3c0-6.5-1.1-12-3.2-16.9c-2.2-4.7-5-8.3-9-10.8c-3.9-2.5-8.3-3.6-13.3-3.6
		c-3.6,0-6.8,0.7-9.9,2s-5.7,3.2-7.9,5.9c-2.2,2.5-3.9,5.9-5.2,9.9c-1.3,3.9-2,8.4-2,13.5s0.5,9.5,2,13.6c1.3,4.1,3.1,7.4,5.4,10.1
		c2.3,2.7,5,4.7,7.9,5.9c3.1,1.3,6.3,2,9.9,2c4.7,0,8.8-1.1,12.6-3.4c3.8-2.3,6.8-5.7,9.2-10.6C504,171.2,505.3,165.3,505.3,158.3
		L505.3,158.3z"/>
	<path d="M562,123.4l34.5,52.1v-52.6c0-3.4,0.7-5.9,2.2-7.7c1.4-1.8,3.4-2.5,5.9-2.5c2.5,0,4.7,0.9,6.1,2.5c1.4,1.6,2.2,4.3,2.2,7.7
		v69.7c0,7.7-3.2,11.7-9.7,11.7c-1.6,0-3.1-0.2-4.3-0.7c-1.3-0.5-2.5-1.3-3.6-2.2c-1.1-0.9-2.2-2.2-3.2-3.6c-1.1-1.4-2-2.7-2.9-4.1
		l-33.6-51.5V194c0,3.4-0.7,5.9-2.3,7.7s-3.6,2.7-6.1,2.7s-4.5-0.9-6.1-2.7c-1.4-1.8-2.3-4.3-2.3-7.5v-68.2c0-2.9,0.4-5.2,0.9-6.8
		c0.7-1.8,2-3.2,3.8-4.5c1.8-1.1,3.8-1.8,5.7-1.8c1.6,0,3.1,0.2,4.1,0.7s2.2,1.3,3.1,2.2c0.9,0.9,1.8,2,2.7,3.4
		C560,120.6,561.1,122,562,123.4L562,123.4z"/>
	<path d="M655.9,123.4l34.5,52.1v-52.6c0-3.4,0.7-5.9,2.2-7.7c1.4-1.8,3.4-2.5,5.9-2.5c2.5,0,4.7,0.9,6.1,2.5
		c1.4,1.6,2.2,4.3,2.2,7.7v69.7c0,7.7-3.2,11.7-9.7,11.7c-1.6,0-3.1-0.2-4.3-0.7c-1.3-0.5-2.5-1.3-3.6-2.2c-1.1-0.9-2.2-2.2-3.2-3.6
		c-1.1-1.4-2-2.7-2.9-4.1l-33.6-51.5V194c0,3.4-0.7,5.9-2.3,7.7s-3.6,2.7-6.1,2.7s-4.5-0.9-6.1-2.7s-2.3-4.3-2.3-7.5v-68.2
		c0-2.9,0.4-5.2,0.9-6.8c0.7-1.8,2-3.2,3.8-4.5c1.8-1.1,3.8-1.8,5.7-1.8c1.6,0,3.1,0.2,4.1,0.7c1.1,0.5,2.2,1.3,3.1,2.2
		c0.9,0.9,1.8,2,2.7,3.4C653.9,120.6,654.8,122,655.9,123.4L655.9,123.4z"/>
	<path d="M784.6,128.1h-40.2v21.7h37.2c2.7,0,4.8,0.5,6.1,1.8c1.4,1.3,2,2.9,2,4.8s-0.7,3.6-2,4.8c-1.3,1.3-3.4,2-6.1,2h-37.2v25.1
		h41.7c2.9,0,5,0.7,6.5,2c1.4,1.3,2.2,3.1,2.2,5.2c0,2.2-0.7,3.8-2.2,5c-1.4,1.3-3.6,2-6.5,2h-48.7c-3.9,0-6.6-0.9-8.4-2.7
		c-1.6-1.8-2.5-4.5-2.5-8.4V125c0-2.5,0.4-4.7,1.1-6.3c0.7-1.6,2-2.9,3.6-3.6c1.6-0.7,3.8-1.1,6.3-1.1h47.4c2.9,0,5,0.7,6.5,2
		c1.4,1.3,2.2,2.9,2.2,5c0,2.2-0.7,3.8-2.2,5C789.7,127.4,787.5,128.1,784.6,128.1L784.6,128.1z"/>
	<path d="M884.3,174.8c0,2.9-0.7,5.9-2.2,9.2s-3.6,6.5-6.5,9.7c-2.9,3.2-6.8,5.7-11.5,7.7c-4.7,2-10.1,2.9-16.2,2.9
		c-4.7,0-9-0.4-12.7-1.3c-3.8-0.9-7.4-2.3-10.4-4.1c-3.1-1.8-5.9-4.3-8.6-7.4c-2.3-2.7-4.3-5.9-5.9-9.3c-1.6-3.4-2.9-7.2-3.8-11
		c-0.9-3.9-1.3-8.1-1.3-12.4c0-7.2,1.1-13.5,3.1-19c2.2-5.6,5-10.4,9-14.4c3.9-3.9,8.4-7,13.6-9.2s10.8-3.2,16.5-3.2
		c7.2,0,13.5,1.4,19,4.3c5.6,2.9,9.9,6.5,12.9,10.6c3.1,4.1,4.5,8.1,4.5,11.8c0,2-0.7,3.8-2.2,5.4s-3.2,2.3-5.2,2.3
		c-2.3,0-3.9-0.5-5.2-1.6c-1.1-1.1-2.5-2.9-3.8-5.6c-2.3-4.3-5-7.7-8.3-9.9c-3.2-2.2-7-3.2-11.7-3.2c-7.4,0-13.3,2.9-17.6,8.4
		s-6.5,13.5-6.5,23.9c0,6.8,0.9,12.6,2.9,17.2c2,4.7,4.7,7.9,8.3,10.2c3.6,2.3,7.7,3.4,12.4,3.4c5.2,0,9.5-1.3,13.1-3.8
		c3.6-2.5,6.3-6.3,8.1-11.3c0.7-2.3,1.8-4.3,2.9-5.7c1.1-1.4,2.9-2.2,5.4-2.2c2.2,0,3.9,0.7,5.6,2.2
		C883.7,171,884.3,172.4,884.3,174.8L884.3,174.8z"/>
	<path d="M957.7,129h-19.6v64.3c0,3.8-0.9,6.5-2.5,8.3c-1.6,1.8-3.8,2.7-6.5,2.7c-2.7,0-4.8-0.9-6.5-2.7c-1.6-1.8-2.5-4.5-2.5-8.3
		V129h-19.6c-3.1,0-5.4-0.7-6.8-2c-1.4-1.4-2.2-3.1-2.2-5.4c0-2.3,0.7-4.1,2.3-5.4s3.8-2,6.8-2h56.9c3.1,0,5.4,0.7,7,2
		c1.6,1.3,2.3,3.2,2.3,5.4c0,2.2-0.7,3.9-2.3,5.4C963.1,128.5,960.8,129,957.7,129L957.7,129z"/>
	<path d="M1011.2,195.1v-11.3h-30.3c-3.8,0-6.6-0.9-8.6-2.5c-2-1.8-2.9-4.1-2.9-7c0-0.7,0.2-1.6,0.4-2.3c0.2-0.7,0.7-1.6,1.3-2.5
		c0.5-0.9,1.1-1.8,1.8-2.5s1.4-1.8,2.2-2.9l32-42.7c2.2-2.9,3.8-4.8,5.2-6.1c1.4-1.3,2.9-2,4.8-2c6.1,0,9.2,3.6,9.2,10.6v46.7h2.7
		c3.1,0,5.6,0.4,7.4,1.3c1.8,0.9,2.9,2.7,2.9,5.6c0,2.3-0.7,3.9-2.3,5c-1.6,1.1-3.8,1.6-6.8,1.6h-3.6v11.1c0,3.1-0.7,5.4-2,7
		c-1.3,1.6-3.2,2.3-5.6,2.3s-4.1-0.7-5.4-2.3C1011.9,200.4,1011.2,198.1,1011.2,195.1L1011.2,195.1z M985.2,170.3h26v-35
		L985.2,170.3z"/>
	<path d="M1051.1,166.2v-42.6c0-3.6,0.9-6.3,2.5-8.1c1.6-1.8,3.8-2.7,6.5-2.7s5,0.9,6.6,2.7c1.6,1.8,2.5,4.5,2.5,8.1v43.4
		c0,5,0.5,9.2,1.6,12.4c1.1,3.4,3.1,5.9,5.9,7.7c2.9,1.8,6.8,2.7,11.8,2.7c7,0,11.8-1.8,14.9-5.6c3.1-3.8,4.3-9.3,4.3-16.9v-43.8
		c0-3.6,0.9-6.5,2.3-8.1c1.6-1.8,3.8-2.7,6.5-2.7s4.8,0.9,6.5,2.7c1.6,1.8,2.5,4.5,2.5,8.1v42.6c0,7-0.7,12.7-2,17.2
		s-3.9,8.6-7.5,12.2c-3.2,3.1-7,5.2-11.1,6.5s-9.2,2-14.9,2c-6.8,0-12.6-0.7-17.6-2.2s-9-3.8-12-6.8c-3.1-3.1-5.4-7-6.8-11.8
		C1052.1,178.4,1051.1,172.8,1051.1,166.2L1051.1,166.2z"/>
</g>
<g>
	<path d="M145.2,278.3c-69.8,0-130.7-49.5-144.9-117.7L0,159l0.8-1.4c11.5-20.8,33.4-33.7,57.2-33.7c16.9,0,32.2,6.4,43.9,16.9
		c11.6-10.5,27-16.9,43.9-16.9s32.2,6.4,43.9,16.9c11.6-10.5,27-16.9,43.9-16.9c23.2,0,44.8,12.5,56.5,32.5l0.8,1.4l-0.3,1.6
		C276.6,228.3,215.6,278.3,145.2,278.3z M8.9,160.4c14,63.5,71,109.5,136.3,109.5c65.8,0,123-46.4,136.5-110.5
		c-10.3-16.7-28.8-27-48.4-27c-14.6,0-27.9,5.5-38,14.6c9.7,11.4,15.6,26.2,15.6,42.4c0,17.1-6.6,33.3-18.5,45.5l-3,3.1l-3-3
		c-12-12.3-18.5-28.5-18.5-45.6c0-16.1,5.9-31,15.6-42.4c-10.1-9-23.4-14.6-38-14.6c-14.6,0-27.9,5.5-38,14.6
		c9.7,11.4,15.6,26.2,15.6,42.4c0,17.1-6.6,33.3-18.5,45.5l-3,3.1l-3-3.1c-11.9-12.3-18.5-28.4-18.5-45.5c0-16.1,5.9-31,15.6-42.4
		c-10.1-9-23.4-14.6-38-14.6C37.8,132.4,19.1,143.1,8.9,160.4z M101.8,153.1c-8.2,9.9-13.1,22.5-13.1,36.3
		c0,13.4,4.6,26.1,13.1,36.3c8.4-10.2,13.1-22.9,13.1-36.3C114.9,175.5,110,162.9,101.8,153.1z M189.5,153.1
		c-8.2,9.9-13.1,22.5-13.1,36.3c0,13.4,4.6,26.1,13.1,36.3c8.5-10.2,13.1-22.9,13.1-36.3C202.6,175.5,197.7,162.9,189.5,153.1z"/>
	<circle cx="57.9" cy="88.5" r="22"/>
	<circle cx="145.7" cy="70.4" r="31.7"/>
	<circle cx="233.4" cy="88.5" r="22"/>
</g>
</svg>
