<?xml version="1.0" encoding="UTF-8"?>
<svg id="_圖層_1" data-name="圖層 1" xmlns="http://www.w3.org/2000/svg" viewBox="0 0 480 437.08">
  <g>
    <path d="m48.55,418.95c0,1.73-.43,3.61-1.28,5.63-.85,2.02-2.2,4-4.03,5.94-1.83,1.94-4.17,3.52-7.02,4.74-2.85,1.21-6.17,1.82-9.96,1.82-2.87,0-5.48-.27-7.84-.82-2.35-.55-4.49-1.39-6.41-2.54-1.92-1.15-3.68-2.67-5.29-4.55-1.44-1.71-2.66-3.62-3.68-5.74s-1.78-4.38-2.28-6.78c-.51-2.4-.76-4.95-.76-7.65,0-4.38.64-8.31,1.91-11.78,1.28-3.47,3.1-6.43,5.48-8.9,2.38-2.46,5.16-4.34,8.36-5.63,3.2-1.29,6.6-1.93,10.22-1.93,4.41,0,8.33.88,11.78,2.64,3.44,1.76,6.08,3.93,7.91,6.52,1.83,2.59,2.75,5.03,2.75,7.34,0,1.26-.45,2.38-1.34,3.34s-1.97,1.45-3.23,1.45c-1.41,0-2.47-.34-3.18-1-.71-.67-1.49-1.82-2.36-3.46-1.44-2.7-3.13-4.72-5.07-6.05-1.94-1.34-4.34-2.01-7.19-2.01-4.53,0-8.14,1.72-10.83,5.16-2.69,3.44-4.03,8.33-4.03,14.67,0,4.23.59,7.76,1.78,10.57,1.19,2.81,2.87,4.91,5.05,6.29,2.18,1.39,4.73,2.08,7.65,2.08,3.17,0,5.85-.79,8.04-2.36,2.19-1.57,3.84-3.88,4.96-6.93.47-1.44,1.05-2.61,1.75-3.51.69-.9,1.81-1.35,3.34-1.35,1.31,0,2.44.46,3.38,1.37.94.92,1.41,2.05,1.41,3.42Z"/>
    <path d="m82.43,380.77c5.65,0,10.49,1.15,14.54,3.44,4.05,2.29,7.11,5.55,9.19,9.77,2.08,4.22,3.12,9.18,3.12,14.88,0,4.21-.57,8.04-1.71,11.48-1.14,3.44-2.85,6.43-5.13,8.95-2.28,2.52-5.08,4.46-8.4,5.79s-7.12,2.01-11.4,2.01-8.07-.69-11.44-2.06c-3.37-1.37-6.18-3.31-8.43-5.81-2.25-2.5-3.96-5.51-5.11-9.03-1.15-3.52-1.73-7.32-1.73-11.41s.6-8.02,1.8-11.52c1.2-3.49,2.94-6.46,5.22-8.92,2.28-2.45,5.05-4.33,8.32-5.63,3.27-1.3,6.98-1.95,11.14-1.95Zm15.68,28.01c0-3.99-.64-7.44-1.93-10.36-1.29-2.92-3.13-5.13-5.52-6.63-2.39-1.5-5.13-2.25-8.23-2.25-2.2,0-4.24.42-6.11,1.24s-3.48,2.04-4.83,3.62c-1.35,1.59-2.41,3.61-3.19,6.07-.78,2.46-1.17,5.23-1.17,8.3s.39,5.9,1.17,8.4c.78,2.5,1.88,4.58,3.31,6.22,1.42,1.65,3.06,2.88,4.9,3.7,1.84.82,3.87,1.23,6.07,1.23,2.82,0,5.42-.71,7.78-2.12,2.37-1.41,4.25-3.59,5.65-6.54,1.4-2.95,2.1-6.58,2.1-10.88Z"/>
    <path d="m133.09,387.38l21.21,32.09v-32.39c0-2.1.45-3.68,1.36-4.74s2.12-1.58,3.66-1.58,2.83.53,3.75,1.58,1.37,2.63,1.37,4.74v42.83c0,4.78-1.98,7.17-5.94,7.17-.99,0-1.88-.14-2.67-.43-.79-.28-1.54-.74-2.23-1.35s-1.34-1.34-1.93-2.17c-.59-.83-1.19-1.68-1.78-2.54l-20.69-31.72v31.91c0,2.08-.48,3.65-1.45,4.72-.97,1.07-2.2,1.6-3.71,1.6s-2.81-.54-3.75-1.62c-.94-1.08-1.41-2.64-1.41-4.7v-42.01c0-1.78.2-3.18.59-4.2.47-1.12,1.25-2.03,2.34-2.73,1.09-.7,2.27-1.06,3.53-1.06.99,0,1.84.16,2.54.48s1.32.75,1.86,1.3c.53.55,1.08,1.25,1.63,2.12.56.87,1.13,1.77,1.73,2.71Z"/>
    <path d="m190.89,387.38l21.21,32.09v-32.39c0-2.1.45-3.68,1.36-4.74.9-1.05,2.12-1.58,3.66-1.58s2.83.53,3.75,1.58,1.37,2.63,1.37,4.74v42.83c0,4.78-1.98,7.17-5.94,7.17-.99,0-1.88-.14-2.67-.43-.79-.28-1.54-.74-2.23-1.35s-1.34-1.34-1.93-2.17c-.59-.83-1.19-1.68-1.78-2.54l-20.69-31.72v31.91c0,2.08-.48,3.65-1.45,4.72-.97,1.07-2.2,1.6-3.71,1.6s-2.81-.54-3.75-1.62c-.94-1.08-1.41-2.64-1.41-4.7v-42.01c0-1.78.2-3.18.59-4.2.47-1.12,1.25-2.03,2.34-2.73,1.09-.7,2.27-1.06,3.53-1.06.99,0,1.84.16,2.54.48s1.32.75,1.86,1.3c.53.55,1.08,1.25,1.63,2.12.56.87,1.13,1.77,1.73,2.71Z"/>
    <path d="m270.2,390.2h-24.85v13.37h22.88c1.68,0,2.94.38,3.77,1.13.83.75,1.24,1.75,1.24,2.99s-.41,2.25-1.23,3.03c-.82.78-2.08,1.17-3.79,1.17h-22.88v15.49h25.7c1.73,0,3.04.4,3.92,1.21s1.32,1.88,1.32,3.21-.44,2.33-1.32,3.14c-.88.8-2.19,1.21-3.92,1.21h-29.98c-2.4,0-4.13-.53-5.18-1.6-1.05-1.06-1.58-2.79-1.58-5.16v-40.94c0-1.58.24-2.88.71-3.88s1.21-1.73,2.21-2.19c1-.46,2.28-.69,3.84-.69h29.12c1.76,0,3.06.39,3.92,1.17.85.78,1.28,1.8,1.28,3.06s-.43,2.32-1.28,3.1c-.85.78-2.16,1.17-3.92,1.17Z"/>
    <path d="m331.45,418.95c0,1.73-.43,3.61-1.28,5.63-.85,2.02-2.2,4-4.03,5.94-1.83,1.94-4.17,3.52-7.02,4.74-2.85,1.21-6.17,1.82-9.96,1.82-2.87,0-5.48-.27-7.84-.82-2.35-.55-4.49-1.39-6.41-2.54-1.92-1.15-3.68-2.67-5.29-4.55-1.44-1.71-2.66-3.62-3.68-5.74s-1.78-4.38-2.28-6.78c-.51-2.4-.76-4.95-.76-7.65,0-4.38.64-8.31,1.91-11.78,1.28-3.47,3.1-6.43,5.48-8.9s5.16-4.34,8.36-5.63c3.19-1.29,6.6-1.93,10.22-1.93,4.41,0,8.33.88,11.77,2.64,3.44,1.76,6.08,3.93,7.91,6.52,1.83,2.59,2.75,5.03,2.75,7.34,0,1.26-.45,2.38-1.34,3.34s-1.97,1.45-3.23,1.45c-1.41,0-2.47-.34-3.17-1-.71-.67-1.49-1.82-2.36-3.46-1.44-2.7-3.13-4.72-5.07-6.05-1.94-1.34-4.34-2.01-7.19-2.01-4.53,0-8.14,1.72-10.83,5.16-2.69,3.44-4.03,8.33-4.03,14.67,0,4.23.59,7.76,1.78,10.57s2.87,4.91,5.05,6.29c2.18,1.39,4.73,2.08,7.65,2.08,3.17,0,5.85-.79,8.04-2.36,2.19-1.57,3.84-3.88,4.96-6.93.47-1.44,1.05-2.61,1.75-3.51.69-.9,1.81-1.35,3.34-1.35,1.31,0,2.44.46,3.38,1.37s1.41,2.05,1.41,3.42Z"/>
    <path d="m376.73,390.79h-12.04v39.56c0,2.28-.51,3.97-1.52,5.07s-2.33,1.65-3.94,1.65-2.97-.56-3.99-1.67c-1.03-1.12-1.54-2.8-1.54-5.05v-39.56h-12.04c-1.88,0-3.28-.41-4.2-1.24-.92-.83-1.37-1.92-1.37-3.29s.48-2.53,1.43-3.34,2.33-1.23,4.14-1.23h35.07c1.91,0,3.32.42,4.25,1.26s1.39,1.94,1.39,3.31-.47,2.46-1.41,3.29c-.94.83-2.35,1.24-4.23,1.24Z"/>
    <path d="m409.61,431.43v-6.91h-18.65c-2.35,0-4.12-.53-5.29-1.6-1.18-1.07-1.76-2.51-1.76-4.35,0-.47.09-.95.26-1.43s.43-.99.78-1.52c.35-.53.71-1.05,1.08-1.54s.83-1.1,1.37-1.82l19.69-26.34c1.29-1.73,2.35-2.99,3.17-3.77.83-.78,1.83-1.17,2.99-1.17,3.76,0,5.65,2.16,5.65,6.46v28.75h1.6c1.91,0,3.44.26,4.59.78,1.15.52,1.73,1.66,1.73,3.42,0,1.44-.47,2.48-1.41,3.14-.94.66-2.35.98-4.23.98h-2.27v6.91c0,1.91-.42,3.33-1.26,4.25-.84.93-1.97,1.39-3.38,1.39s-2.51-.48-3.36-1.43c-.85-.95-1.28-2.36-1.28-4.22Zm-15.97-15.23h15.97v-21.58l-15.97,21.58Z"/>
    <path d="m434.2,413.64v-26.19c0-2.23.5-3.9,1.5-5.01,1-1.11,2.32-1.67,3.96-1.67s3.06.56,4.07,1.67c1,1.12,1.5,2.79,1.5,5.01v26.78c0,3.05.34,5.59,1.02,7.63.68,2.04,1.89,3.63,3.62,4.76,1.73,1.13,4.16,1.69,7.28,1.69,4.31,0,7.35-1.15,9.14-3.44,1.78-2.29,2.68-5.76,2.68-10.42v-27.01c0-2.25.49-3.93,1.48-5.03.99-1.1,2.32-1.65,3.98-1.65s3,.55,4.03,1.65c1.03,1.1,1.54,2.78,1.54,5.03v26.19c0,4.26-.42,7.81-1.24,10.66-.83,2.85-2.4,5.35-4.7,7.5-1.98,1.83-4.28,3.17-6.91,4.01-2.62.84-5.69,1.26-9.21,1.26-4.19,0-7.79-.45-10.81-1.36-3.02-.9-5.48-2.3-7.39-4.2-1.91-1.89-3.31-4.32-4.2-7.28-.89-2.96-1.34-6.49-1.34-10.6Z"/>
  </g>
  <g>
    <path d="m239.86,340.74c-90.07,0-168.73-63.91-187.03-151.96l-.41-1.98.98-1.77c14.88-26.82,43.16-43.47,73.8-43.47,21.76,0,41.62,8.28,56.6,21.86,14.98-13.58,34.84-21.86,56.6-21.86s41.62,8.28,56.6,21.86c14.98-13.58,34.84-21.86,56.6-21.86,29.92,0,57.87,16.08,72.94,41.96l1.04,1.78-.4,2.02c-17.75,88.9-96.53,153.42-187.32,153.42ZM63.91,188.57c18.03,82,91.69,141.29,175.94,141.29s158.7-59.85,176.23-142.62c-13.35-21.52-37.11-34.8-62.48-34.8-18.82,0-36.01,7.11-49.02,18.79,12.57,14.74,20.17,33.84,20.17,54.68,0,22.08-8.47,42.95-23.85,58.78l-3.85,3.96-3.9-3.9c-15.44-15.89-23.91-36.76-23.91-58.84,0-20.84,7.6-39.95,20.17-54.68-13.01-11.68-30.2-18.79-49.02-18.79s-36.01,7.11-49.02,18.79c12.57,14.74,20.17,33.84,20.17,54.68,0,22.07-8.47,42.94-23.84,58.77l-3.9,4.02-3.92-4c-15.38-15.83-23.85-36.7-23.85-58.78,0-20.84,7.6-39.95,20.17-54.68-13.01-11.68-30.2-18.79-49.02-18.79-26.02,0-50.08,13.79-63.29,36.13Zm119.89-9.45c-10.53,12.72-16.87,29.03-16.87,46.79s5.95,33.7,16.87,46.85c10.91-13.13,16.87-29.57,16.87-46.85s-6.34-34.08-16.87-46.79Zm113.2,0c-10.53,12.72-16.87,29.03-16.87,46.79s5.95,33.7,16.87,46.85c10.92-13.15,16.87-29.58,16.87-46.85s-6.34-34.08-16.87-46.79Z"/>
    <circle cx="127.2" cy="95.84" r="28.41"/>
    <circle cx="240.4" cy="72.49" r="40.87"/>
    <circle cx="353.6" cy="95.84" r="28.41"/>
  </g>
</svg>