<?xml version="1.0" encoding="UTF-8"?>
<svg id="_圖層_1" data-name="圖層 1" xmlns="http://www.w3.org/2000/svg" viewBox="0 0 446.3 446.3">
  <path d="m223.15,446.3C100.1,446.3,0,346.19,0,223.15S100.1,0,223.15,0s223.15,100.1,223.15,223.15-100.1,223.15-223.15,223.15ZM31.6,268.31c20.77,88.05,100.87,151.67,191.55,151.67s171.61-64.18,191.89-153.03c-14.07-20.87-38.02-33.73-63.18-33.73-16.56,0-32.56,5.39-45.71,15.29,12.99,17.56,20.07,38.91,20.07,60.84,0,26.81-10.29,52.17-28.97,71.39l-9.3,9.57-9.51-9.51c-18.72-19.27-29.03-44.65-29.03-71.45,0-21.94,7.08-43.28,20.07-60.84-13.15-9.9-29.15-15.29-45.71-15.29s-32.56,5.39-45.71,15.29c12.99,17.56,20.07,38.91,20.07,60.84,0,26.8-10.28,52.15-28.95,71.37l-9.42,9.7-9.45-9.66c-18.7-19.24-28.99-44.6-28.99-71.41,0-21.94,7.08-43.28,20.07-60.84-13.15-9.9-29.15-15.29-45.71-15.29-25.83,0-50.13,13.38-64.08,35.08Zm128.12-.06c-7.84,12.21-12.09,26.51-12.09,41.11s4.25,28.99,12.09,41.19c7.84-12.19,12.09-26.52,12.09-41.19s-4.25-28.9-12.09-41.11Zm128.09,0c-7.84,12.21-12.09,26.51-12.09,41.11s4.25,28.99,12.09,41.19c7.84-12.2,12.09-26.53,12.09-41.19s-4.25-28.9-12.09-41.11ZM223.15,26.32C114.62,26.32,26.32,114.62,26.32,223.15c0,3.47.1,7,.31,10.58,18.76-17.19,43.19-26.81,69.05-26.81,23.38,0,45.89,7.96,64.04,22.54,18.15-14.57,40.66-22.54,64.04-22.54s45.89,7.96,64.04,22.54c18.15-14.57,40.66-22.54,64.04-22.54,25.22,0,49.23,9.25,67.88,25.8.17-3.21.25-6.39.25-9.56,0-108.53-88.3-196.83-196.83-196.83Z"/>
  <path d="m223.15,7C103.96,7,7,103.96,7,223.15s96.96,216.15,216.15,216.15,216.15-96.96,216.15-216.15S342.33,7,223.15,7Zm0,419.98c-97.31,0-178.86-68.56-199.01-159.9,14.95-25.24,42.12-40.85,71.54-40.85,21.29,0,40.74,8.05,55.46,21.26-14.23,16.67-22.83,38.29-22.83,61.88,0,24.98,9.58,48.6,26.99,66.51l4.43,4.53,4.42-4.55c17.39-17.91,26.97-41.53,26.97-66.5,0-23.58-8.6-45.2-22.83-61.88,14.72-13.21,34.17-21.26,55.46-21.26s40.74,8.05,55.46,21.26c-14.23,16.67-22.83,38.29-22.83,61.88,0,24.98,9.58,48.59,27.05,66.57l4.42,4.42,4.35-4.48c17.41-17.91,26.99-41.53,26.99-66.51,0-23.58-8.6-45.2-22.83-61.88,14.72-13.21,34.17-21.26,55.46-21.26,28.7,0,55.54,15.05,70.65,39.38-19.59,92.08-101.52,161.38-199.35,161.38Zm-63.43-170.57c11.92,14.39,19.09,32.85,19.09,52.95s-6.75,38.16-19.09,53.02c-12.36-14.89-19.09-33.47-19.09-53.02s7.17-38.56,19.09-52.95Zm128.09,0c11.92,14.39,19.09,32.85,19.09,52.95s-6.74,38.13-19.09,53.01c-12.35-14.88-19.09-33.47-19.09-53.01s7.17-38.56,19.09-52.95Zm64.04-42.5c-24.62,0-47.1,9.37-64.04,24.73-16.95-15.36-39.42-24.73-64.04-24.73s-47.1,9.37-64.04,24.73c-16.95-15.36-39.42-24.73-64.04-24.73-29.28,0-56.61,13.48-74.56,35.93-1.15-8.74-1.8-17.64-1.8-26.69C19.32,110.76,110.76,19.32,223.15,19.32s203.83,91.44,203.83,203.83c0,8.6-.6,17.07-1.64,25.4-17.98-21.64-44.92-34.63-73.49-34.63Z"/>
  <circle cx="95.68" cy="162.18" r="32.15"/>
  <circle cx="223.76" cy="162.18" r="32.15"/>
  <circle cx="351.85" cy="162.18" r="32.15"/>
</svg>