<?xml version="1.0" encoding="utf-8"?>
<!-- Generator: Adobe Illustrator 27.3.1, SVG Export Plug-In . SVG Version: 6.00 Build 0)  -->
<svg version="1.1" id="_圖層_1" xmlns="http://www.w3.org/2000/svg" xmlns:xlink="http://www.w3.org/1999/xlink" x="0px" y="0px"
	 viewBox="0 0 446.1 640" style="enable-background:new 0 0 446.1 640;" xml:space="preserve">
<style type="text/css">
	.st0{fill:#FFFFFF;stroke:#FFFFFF;stroke-miterlimit:10;}
</style>
<g>
	<g>
		<g>
			<path class="st0" d="M333.9,458.5c-5.4,0-9.1-1.8-9.4-1.9l-3.9-1.9l2.8-3.3c4.2-4.8,7.3-9.7,9.2-14.5H307c-22.6,0-41-18.4-41-41
				c0-22.6,18.4-41,41-41h85.6c2.6,0,5,1,6.8,2.8c1.8,1.8,2.8,4.3,2.8,6.8v62.6c0,5.3-4.3,9.7-9.7,9.7H362
				c-5.4,10.7-12.1,17.6-20.2,20.4C339,458.2,336.3,458.5,333.9,458.5z M331.9,451.7c2.1,0.2,4.8,0.2,7.9-0.9
				c6.7-2.4,12.4-8.7,17.1-18.7l0.9-1.9h34.8c1.6,0,2.9-1.3,2.9-2.9v-62.6c0-0.8-0.3-1.5-0.9-2.1c-0.6-0.6-1.3-0.9-2.1-0.9H307
				c-18.9,0-34.3,15.4-34.3,34.3c0,18.9,15.4,34.3,34.3,34.3h34.6l-1,4.2C339.1,440.1,336.2,445.9,331.9,451.7z M374.9,408.1h-8.6
				c-4.5,0-8.2-3.7-8.2-8.2v-8.6c0-4.5,3.7-8.2,8.2-8.2h8.6c4.5,0,8.2,3.7,8.2,8.2v8.6C383,404.4,379.4,408.1,374.9,408.1z
				 M366.3,389.8c-0.8,0-1.4,0.6-1.4,1.4v8.6c0,0.8,0.6,1.4,1.4,1.4h8.6c0.8,0,1.4-0.6,1.4-1.4v-8.6c0-0.8-0.6-1.4-1.4-1.4H366.3z
				 M341,408.1h-8.6c-4.5,0-8.2-3.7-8.2-8.2v-8.6c0-4.5,3.7-8.2,8.2-8.2h8.6c4.5,0,8.2,3.7,8.2,8.2v8.6
				C349.2,404.4,345.5,408.1,341,408.1z M332.4,389.8c-0.8,0-1.4,0.6-1.4,1.4v8.6c0,0.8,0.6,1.4,1.4,1.4h8.6c0.8,0,1.4-0.6,1.4-1.4
				v-8.6c0-0.8-0.6-1.4-1.4-1.4H332.4z M307.2,408.1h-8.6c-4.5,0-8.2-3.7-8.2-8.2v-8.6c0-4.5,3.7-8.2,8.2-8.2h8.6
				c4.5,0,8.2,3.7,8.2,8.2v8.6C315.4,404.4,311.7,408.1,307.2,408.1z M298.6,389.8c-0.8,0-1.4,0.6-1.4,1.4v8.6
				c0,0.8,0.6,1.4,1.4,1.4h8.6c0.8,0,1.4-0.6,1.4-1.4v-8.6c0-0.8-0.6-1.4-1.4-1.4H298.6z"/>
		</g>
	</g>
	<g>
		<g>
			<path class="st0" d="M216.2,371.5c-8.8,0-14.7-2.9-15.1-3.1l-3.9-1.9l2.8-3.3c8.5-9.8,14.4-19.6,17.6-29.4h-48.1
				c-37.9,0-68.7-30.8-68.7-68.7c0-37.9,30.8-68.7,68.7-68.7h148.6c7.9,0,14.3,6.4,14.3,14.3v108.7c0,7.9-6.4,14.3-14.3,14.3h-54.6
				c-9.1,18.8-20.7,30.7-34.3,35.5C224.5,370.9,220.1,371.5,216.2,371.5z M208.3,363.8c4.2,1,11,1.8,18.8-0.9
				c12.3-4.3,22.7-15.7,31.2-33.9l0.9-1.9h58.9c4.2,0,7.6-3.4,7.6-7.6V210.7c0-4.2-3.4-7.6-7.6-7.6H169.5c-34.2,0-62,27.8-62,62
				c0,34.2,27.8,62,62,62h56.9l-1,4.2C222.7,342.1,217,353,208.3,363.8z M287.4,283.9h-15c-6.4,0-11.7-5.2-11.7-11.7v-15
				c0-6.4,5.2-11.7,11.7-11.7h15c6.4,0,11.7,5.2,11.7,11.7v15C299.1,278.6,293.8,283.9,287.4,283.9z M272.4,252.3c-2.7,0-5,2.2-5,5
				v15c0,2.7,2.2,5,5,5h15c2.7,0,5-2.2,5-5v-15c0-2.7-2.2-5-5-5H272.4z M228.6,283.9h-15c-6.4,0-11.7-5.2-11.7-11.7v-15
				c0-6.4,5.2-11.7,11.7-11.7h15c6.4,0,11.7,5.2,11.7,11.7v15C240.3,278.6,235.1,283.9,228.6,283.9z M213.7,252.3c-2.7,0-5,2.2-5,5
				v15c0,2.7,2.2,5,5,5h15c2.7,0,5-2.2,5-5v-15c0-2.7-2.2-5-5-5H213.7z M169.9,283.9h-15c-6.4,0-11.7-5.2-11.7-11.7v-15
				c0-6.4,5.2-11.7,11.7-11.7h15c6.4,0,11.7,5.2,11.7,11.7v15C181.6,278.6,176.3,283.9,169.9,283.9z M154.9,252.3c-2.7,0-5,2.2-5,5
				v15c0,2.7,2.2,5,5,5h15c2.7,0,5-2.2,5-5v-15c0-2.7-2.2-5-5-5H154.9z"/>
		</g>
	</g>
</g>
</svg>
